<svg width="668" height="200" viewBox="0 0 668 200" fill="none" xmlns="http://www.w3.org/2000/svg">
<path d="M65 165H663" stroke="#F4F1ED"/>
<path d="M65 171V165" stroke="#F4F1ED"/>
<path d="M65 191.639C64.358 191.639 63.8111 191.465 63.3594 191.115C62.9077 190.763 62.5625 190.253 62.3239 189.585C62.0852 188.915 61.9659 188.105 61.9659 187.156C61.9659 186.213 62.0852 185.408 62.3239 184.74C62.5653 184.07 62.9119 183.558 63.3636 183.206C63.8182 182.851 64.3636 182.673 65 182.673C65.6364 182.673 66.1804 182.851 66.6321 183.206C67.0866 183.558 67.4332 184.07 67.6719 184.74C67.9134 185.408 68.0341 186.213 68.0341 187.156C68.0341 188.105 67.9148 188.915 67.6761 189.585C67.4375 190.253 67.0923 190.763 66.6406 191.115C66.1889 191.465 65.642 191.639 65 191.639ZM65 190.702C65.6364 190.702 66.1307 190.395 66.483 189.781C66.8352 189.168 67.0114 188.293 67.0114 187.156C67.0114 186.401 66.9304 185.757 66.7685 185.226C66.6094 184.695 66.3793 184.29 66.0781 184.011C65.7798 183.733 65.4205 183.594 65 183.594C64.3693 183.594 63.8764 183.905 63.5213 184.527C63.1662 185.146 62.9886 186.023 62.9886 187.156C62.9886 187.912 63.0682 188.554 63.2273 189.083C63.3864 189.611 63.6151 190.013 63.9134 190.288C64.2145 190.564 64.5767 190.702 65 190.702Z" fill="#F4F1ED"/>
<path d="M119.364 171V165" stroke="#F4F1ED"/>
<path d="M120.546 182.793V191.52H119.489V183.901H119.438L117.307 185.315V184.242L119.489 182.793H120.546Z" fill="#F4F1ED"/>
<path d="M173.727 171V165" stroke="#F4F1ED"/>
<path d="M170.998 191.52V190.753L173.879 187.6C174.217 187.23 174.495 186.909 174.714 186.636C174.933 186.361 175.094 186.102 175.2 185.861C175.308 185.617 175.362 185.361 175.362 185.094C175.362 184.787 175.288 184.521 175.14 184.297C174.995 184.073 174.796 183.899 174.543 183.777C174.291 183.655 174.006 183.594 173.691 183.594C173.356 183.594 173.063 183.663 172.813 183.803C172.566 183.939 172.374 184.131 172.238 184.378C172.104 184.625 172.038 184.915 172.038 185.247H171.032C171.032 184.736 171.15 184.287 171.386 183.901C171.621 183.514 171.942 183.213 172.349 182.997C172.758 182.781 173.217 182.673 173.725 182.673C174.237 182.673 174.69 182.781 175.085 182.997C175.479 183.213 175.789 183.504 176.014 183.871C176.238 184.237 176.35 184.645 176.35 185.094C176.35 185.415 176.292 185.729 176.175 186.036C176.062 186.34 175.863 186.679 175.579 187.054C175.298 187.426 174.907 187.881 174.407 188.418L172.447 190.514V190.583H176.504V191.52H170.998Z" fill="#F4F1ED"/>
<path d="M228.091 171V165" stroke="#F4F1ED"/>
<path d="M228.123 191.639C227.56 191.639 227.059 191.543 226.619 191.35C226.181 191.156 225.833 190.888 225.574 190.544C225.319 190.198 225.18 189.796 225.157 189.338H226.231C226.253 189.619 226.35 189.862 226.521 190.067C226.691 190.269 226.914 190.425 227.19 190.536C227.465 190.646 227.771 190.702 228.106 190.702C228.481 190.702 228.813 190.636 229.103 190.506C229.393 190.375 229.62 190.193 229.785 189.96C229.949 189.727 230.032 189.458 230.032 189.151C230.032 188.83 229.952 188.547 229.793 188.303C229.634 188.056 229.401 187.862 229.094 187.723C228.788 187.584 228.413 187.514 227.969 187.514H227.271V186.577H227.969C228.316 186.577 228.62 186.514 228.881 186.389C229.146 186.264 229.351 186.088 229.499 185.861C229.65 185.634 229.725 185.367 229.725 185.06C229.725 184.764 229.66 184.507 229.529 184.288C229.398 184.07 229.214 183.899 228.975 183.777C228.739 183.655 228.461 183.594 228.14 183.594C227.839 183.594 227.555 183.649 227.288 183.76C227.023 183.868 226.807 184.026 226.64 184.233C226.472 184.438 226.381 184.685 226.367 184.975H225.344C225.361 184.517 225.499 184.117 225.758 183.773C226.016 183.426 226.354 183.156 226.772 182.963C227.192 182.77 227.654 182.673 228.157 182.673C228.697 182.673 229.16 182.783 229.546 183.002C229.932 183.217 230.229 183.503 230.437 183.858C230.644 184.213 230.748 184.597 230.748 185.009C230.748 185.5 230.619 185.919 230.36 186.266C230.104 186.612 229.756 186.852 229.316 186.986V187.054C229.867 187.145 230.297 187.379 230.607 187.757C230.917 188.132 231.072 188.597 231.072 189.151C231.072 189.625 230.942 190.051 230.684 190.429C230.428 190.804 230.079 191.1 229.636 191.315C229.192 191.531 228.688 191.639 228.123 191.639Z" fill="#F4F1ED"/>
<path d="M282.455 171V165" stroke="#F4F1ED"/>
<path d="M279.304 189.73V188.861L283.139 182.793H283.77V184.139H283.344L280.446 188.725V188.793H285.611V189.73H279.304ZM283.412 191.52V189.466V189.061V182.793H284.417V191.52H283.412Z" fill="#F4F1ED"/>
<path d="M336.818 171V165" stroke="#F4F1ED"/>
<path d="M336.798 191.639C336.298 191.639 335.848 191.54 335.448 191.341C335.047 191.142 334.726 190.869 334.484 190.523C334.243 190.176 334.111 189.781 334.088 189.338H335.111C335.151 189.733 335.33 190.06 335.648 190.318C335.969 190.574 336.352 190.702 336.798 190.702C337.156 190.702 337.475 190.618 337.753 190.45C338.034 190.283 338.254 190.053 338.413 189.76C338.575 189.465 338.656 189.131 338.656 188.759C338.656 188.378 338.573 188.038 338.405 187.74C338.24 187.439 338.013 187.202 337.723 187.029C337.433 186.855 337.102 186.767 336.73 186.764C336.463 186.761 336.189 186.803 335.908 186.888C335.627 186.97 335.395 187.077 335.213 187.208L334.225 187.088L334.753 182.793H339.287V183.73H335.639L335.332 186.304H335.384C335.563 186.162 335.787 186.044 336.057 185.95C336.327 185.857 336.608 185.81 336.901 185.81C337.435 185.81 337.911 185.938 338.328 186.193C338.749 186.446 339.078 186.793 339.317 187.233C339.558 187.673 339.679 188.176 339.679 188.742C339.679 189.298 339.554 189.796 339.304 190.233C339.057 190.668 338.716 191.011 338.281 191.264C337.847 191.514 337.352 191.639 336.798 191.639Z" fill="#F4F1ED"/>
<path d="M391.182 171V165" stroke="#F4F1ED"/>
<path d="M391.239 191.639C390.881 191.634 390.523 191.565 390.165 191.435C389.807 191.304 389.48 191.084 389.185 190.774C388.889 190.462 388.652 190.04 388.473 189.509C388.294 188.975 388.205 188.304 388.205 187.497C388.205 186.725 388.277 186.04 388.422 185.443C388.567 184.844 388.777 184.34 389.053 183.931C389.328 183.519 389.661 183.206 390.05 182.993C390.442 182.78 390.884 182.673 391.375 182.673C391.864 182.673 392.299 182.771 392.679 182.967C393.063 183.161 393.375 183.431 393.617 183.777C393.858 184.124 394.014 184.523 394.085 184.975H393.046C392.949 184.583 392.762 184.257 392.483 183.999C392.205 183.74 391.835 183.611 391.375 183.611C390.699 183.611 390.166 183.905 389.777 184.493C389.391 185.081 389.196 185.906 389.193 186.969H389.262C389.421 186.727 389.61 186.521 389.828 186.351C390.05 186.178 390.294 186.044 390.561 185.95C390.828 185.857 391.111 185.81 391.409 185.81C391.909 185.81 392.367 185.935 392.781 186.185C393.196 186.432 393.529 186.774 393.779 187.212C394.029 187.646 394.154 188.145 394.154 188.708C394.154 189.247 394.033 189.742 393.791 190.19C393.55 190.636 393.21 190.992 392.773 191.256C392.338 191.517 391.827 191.645 391.239 191.639ZM391.239 190.702C391.597 190.702 391.918 190.612 392.202 190.433C392.489 190.254 392.715 190.014 392.88 189.713C393.047 189.412 393.131 189.077 393.131 188.708C393.131 188.347 393.05 188.019 392.888 187.723C392.729 187.425 392.509 187.188 392.228 187.011C391.949 186.835 391.631 186.747 391.273 186.747C391.003 186.747 390.752 186.801 390.519 186.909C390.286 187.014 390.081 187.159 389.905 187.344C389.732 187.529 389.595 187.74 389.496 187.979C389.397 188.215 389.347 188.463 389.347 188.725C389.347 189.071 389.428 189.395 389.59 189.696C389.755 189.997 389.979 190.24 390.263 190.425C390.55 190.609 390.875 190.702 391.239 190.702Z" fill="#F4F1ED"/>
<path d="M445.545 171V165" stroke="#F4F1ED"/>
<path d="M443.294 191.52L447.197 183.798V183.73H442.697V182.793H448.288V183.781L444.402 191.52H443.294Z" fill="#F4F1ED"/>
<path d="M499.909 171V165" stroke="#F4F1ED"/>
<path d="M499.911 191.639C499.326 191.639 498.809 191.536 498.36 191.328C497.914 191.118 497.566 190.83 497.316 190.463C497.066 190.094 496.942 189.673 496.945 189.202C496.942 188.833 497.014 188.492 497.162 188.179C497.31 187.864 497.512 187.601 497.767 187.391C498.026 187.178 498.314 187.043 498.632 186.986V186.935C498.215 186.827 497.882 186.592 497.635 186.232C497.388 185.868 497.266 185.455 497.269 184.992C497.266 184.548 497.378 184.152 497.605 183.803C497.833 183.453 498.145 183.178 498.543 182.976C498.943 182.774 499.399 182.673 499.911 182.673C500.416 182.673 500.868 182.774 501.266 182.976C501.664 183.178 501.976 183.453 502.203 183.803C502.434 184.152 502.55 184.548 502.553 184.992C502.55 185.455 502.424 185.868 502.174 186.232C501.926 186.592 501.598 186.827 501.189 186.935V186.986C501.505 187.043 501.789 187.178 502.041 187.391C502.294 187.601 502.496 187.864 502.647 188.179C502.797 188.492 502.874 188.833 502.877 189.202C502.874 189.673 502.746 190.094 502.493 190.463C502.243 190.83 501.895 191.118 501.449 191.328C501.006 191.536 500.493 191.639 499.911 191.639ZM499.911 190.702C500.306 190.702 500.647 190.638 500.934 190.51C501.22 190.382 501.442 190.202 501.598 189.969C501.755 189.736 501.834 189.463 501.837 189.151C501.834 188.821 501.749 188.53 501.581 188.277C501.414 188.024 501.185 187.825 500.895 187.681C500.608 187.536 500.28 187.463 499.911 187.463C499.539 187.463 499.206 187.536 498.914 187.681C498.624 187.825 498.395 188.024 498.228 188.277C498.063 188.53 497.982 188.821 497.985 189.151C497.982 189.463 498.057 189.736 498.21 189.969C498.367 190.202 498.59 190.382 498.88 190.51C499.169 190.638 499.513 190.702 499.911 190.702ZM499.911 186.56C500.223 186.56 500.5 186.497 500.742 186.372C500.986 186.247 501.178 186.073 501.317 185.848C501.456 185.624 501.527 185.361 501.53 185.06C501.527 184.764 501.458 184.507 501.321 184.288C501.185 184.067 500.996 183.896 500.755 183.777C500.513 183.655 500.232 183.594 499.911 183.594C499.584 183.594 499.299 183.655 499.054 183.777C498.81 183.896 498.621 184.067 498.487 184.288C498.354 184.507 498.289 184.764 498.291 185.06C498.289 185.361 498.355 185.624 498.492 185.848C498.631 186.073 498.823 186.247 499.067 186.372C499.311 186.497 499.593 186.56 499.911 186.56Z" fill="#F4F1ED"/>
<path d="M554.273 171V165" stroke="#F4F1ED"/>
<path d="M554.21 182.673C554.568 182.676 554.926 182.744 555.284 182.878C555.642 183.011 555.969 183.233 556.264 183.543C556.56 183.85 556.797 184.269 556.976 184.8C557.155 185.331 557.244 185.997 557.244 186.798C557.244 187.574 557.171 188.263 557.023 188.865C556.878 189.465 556.668 189.97 556.392 190.382C556.119 190.794 555.787 191.107 555.395 191.32C555.006 191.533 554.565 191.639 554.074 191.639C553.585 191.639 553.149 191.543 552.766 191.35C552.385 191.154 552.073 190.882 551.828 190.536C551.587 190.186 551.432 189.781 551.364 189.321H552.404C552.497 189.722 552.683 190.053 552.962 190.314C553.243 190.573 553.614 190.702 554.074 190.702C554.747 190.702 555.279 190.408 555.668 189.82C556.06 189.232 556.256 188.401 556.256 187.327H556.188C556.029 187.565 555.84 187.771 555.621 187.945C555.402 188.118 555.159 188.252 554.892 188.345C554.625 188.439 554.341 188.486 554.04 188.486C553.54 188.486 553.081 188.362 552.664 188.115C552.249 187.865 551.916 187.523 551.666 187.088C551.419 186.651 551.296 186.151 551.296 185.588C551.296 185.054 551.415 184.565 551.654 184.122C551.895 183.676 552.233 183.321 552.668 183.057C553.105 182.793 553.619 182.665 554.21 182.673ZM554.21 183.611C553.852 183.611 553.53 183.7 553.243 183.879C552.959 184.056 552.733 184.294 552.565 184.595C552.401 184.894 552.318 185.225 552.318 185.588C552.318 185.952 552.398 186.283 552.557 186.581C552.719 186.877 552.939 187.112 553.217 187.288C553.499 187.462 553.818 187.548 554.176 187.548C554.446 187.548 554.698 187.496 554.931 187.391C555.164 187.283 555.367 187.136 555.54 186.952C555.716 186.764 555.854 186.553 555.953 186.317C556.053 186.078 556.102 185.83 556.102 185.571C556.102 185.23 556.02 184.911 555.855 184.612C555.693 184.314 555.469 184.073 555.182 183.888C554.898 183.703 554.574 183.611 554.21 183.611Z" fill="#F4F1ED"/>
<path d="M608.636 171V165" stroke="#F4F1ED"/>
<path d="M606.069 182.793V191.52H605.012V183.901H604.961L602.83 185.315V184.242L605.012 182.793H606.069ZM611.425 191.639C610.783 191.639 610.236 191.465 609.785 191.115C609.333 190.763 608.988 190.253 608.749 189.585C608.511 188.915 608.391 188.105 608.391 187.156C608.391 186.213 608.511 185.408 608.749 184.74C608.991 184.07 609.337 183.558 609.789 183.206C610.243 182.851 610.789 182.673 611.425 182.673C612.062 182.673 612.606 182.851 613.057 183.206C613.512 183.558 613.859 184.07 614.097 184.74C614.339 185.408 614.459 186.213 614.459 187.156C614.459 188.105 614.34 188.915 614.101 189.585C613.863 190.253 613.518 190.763 613.066 191.115C612.614 191.465 612.067 191.639 611.425 191.639ZM611.425 190.702C612.062 190.702 612.556 190.395 612.908 189.781C613.261 189.168 613.437 188.293 613.437 187.156C613.437 186.401 613.356 185.757 613.194 185.226C613.035 184.695 612.805 184.29 612.503 184.011C612.205 183.733 611.846 183.594 611.425 183.594C610.795 183.594 610.302 183.905 609.947 184.527C609.591 185.146 609.414 186.023 609.414 187.156C609.414 187.912 609.493 188.554 609.653 189.083C609.812 189.611 610.04 190.013 610.339 190.288C610.64 190.564 611.002 190.702 611.425 190.702Z" fill="#F4F1ED"/>
<path d="M663 171V165" stroke="#F4F1ED"/>
<path d="M658.69 182.793V191.52H657.634V183.901H657.582L655.452 185.315V184.242L657.634 182.793H658.69ZM664.268 182.793V191.52H663.212V183.901H663.161L661.03 185.315V184.242L663.212 182.793H664.268Z" fill="#F4F1ED"/>
<path d="M65 5V165" stroke="#F4F1ED"/>
<path d="M59 165H65" stroke="#F4F1ED"/>
<path d="M50.25 169.379C49.608 169.379 49.0611 169.205 48.6094 168.855C48.1577 168.503 47.8125 167.993 47.5739 167.325C47.3352 166.655 47.2159 165.845 47.2159 164.896C47.2159 163.953 47.3352 163.148 47.5739 162.48C47.8153 161.81 48.1619 161.298 48.6136 160.946C49.0682 160.591 49.6136 160.413 50.25 160.413C50.8864 160.413 51.4304 160.591 51.8821 160.946C52.3366 161.298 52.6832 161.81 52.9219 162.48C53.1634 163.148 53.2841 163.953 53.2841 164.896C53.2841 165.845 53.1648 166.655 52.9261 167.325C52.6875 167.993 52.3423 168.503 51.8906 168.855C51.4389 169.205 50.892 169.379 50.25 169.379ZM50.25 168.442C50.8864 168.442 51.3807 168.135 51.733 167.521C52.0852 166.908 52.2614 166.033 52.2614 164.896C52.2614 164.141 52.1804 163.497 52.0185 162.966C51.8594 162.435 51.6293 162.03 51.3281 161.751C51.0298 161.473 50.6705 161.334 50.25 161.334C49.6193 161.334 49.1264 161.645 48.7713 162.267C48.4162 162.886 48.2386 163.763 48.2386 164.896C48.2386 165.652 48.3182 166.294 48.4773 166.822C48.6364 167.351 48.8651 167.753 49.1634 168.028C49.4645 168.304 49.8267 168.442 50.25 168.442Z" fill="#F4F1ED"/>
<path d="M59 125H65" stroke="#F4F1ED"/>
<path d="M40.1378 129.26V128.493L43.0185 125.34C43.3565 124.97 43.6349 124.649 43.8537 124.376C44.0724 124.101 44.2344 123.842 44.3395 123.601C44.4474 123.357 44.5014 123.101 44.5014 122.834C44.5014 122.527 44.4276 122.261 44.2798 122.037C44.1349 121.813 43.9361 121.639 43.6832 121.517C43.4304 121.395 43.1463 121.334 42.831 121.334C42.4957 121.334 42.2031 121.403 41.9531 121.543C41.706 121.679 41.5142 121.871 41.3778 122.118C41.2443 122.365 41.1776 122.655 41.1776 122.987H40.1719C40.1719 122.476 40.2898 122.027 40.5256 121.641C40.7614 121.254 41.0824 120.953 41.4886 120.737C41.8977 120.521 42.3565 120.413 42.8651 120.413C43.3764 120.413 43.8295 120.521 44.2244 120.737C44.6193 120.953 44.929 121.244 45.1534 121.611C45.3778 121.977 45.4901 122.385 45.4901 122.834C45.4901 123.155 45.4318 123.469 45.3153 123.776C45.2017 124.08 45.0028 124.419 44.7188 124.794C44.4375 125.166 44.0469 125.621 43.5469 126.158L41.5866 128.254V128.322H45.6435V129.26H40.1378ZM50.25 129.379C49.608 129.379 49.0611 129.205 48.6094 128.855C48.1577 128.503 47.8125 127.993 47.5739 127.325C47.3352 126.655 47.2159 125.845 47.2159 124.896C47.2159 123.953 47.3352 123.148 47.5739 122.48C47.8153 121.81 48.1619 121.298 48.6136 120.946C49.0682 120.591 49.6136 120.413 50.25 120.413C50.8864 120.413 51.4304 120.591 51.8821 120.946C52.3366 121.298 52.6832 121.81 52.9219 122.48C53.1634 123.148 53.2841 123.953 53.2841 124.896C53.2841 125.845 53.1648 126.655 52.9261 127.325C52.6875 127.993 52.3423 128.503 51.8906 128.855C51.4389 129.205 50.892 129.379 50.25 129.379ZM50.25 128.442C50.8864 128.442 51.3807 128.135 51.733 127.521C52.0852 126.908 52.2614 126.033 52.2614 124.896C52.2614 124.141 52.1804 123.497 52.0185 122.966C51.8594 122.435 51.6293 122.03 51.3281 121.751C51.0298 121.473 50.6705 121.334 50.25 121.334C49.6193 121.334 49.1264 121.645 48.7713 122.267C48.4162 122.886 48.2386 123.763 48.2386 124.896C48.2386 125.652 48.3182 126.294 48.4773 126.822C48.6364 127.351 48.8651 127.753 49.1634 128.028C49.4645 128.304 49.8267 128.442 50.25 128.442Z" fill="#F4F1ED"/>
<path d="M59 85H65" stroke="#F4F1ED"/>
<path d="M39.4996 87.4702V86.6009L43.3349 80.5327H43.9656V81.8793H43.5394L40.6417 86.4645V86.5327H45.8065V87.4702H39.4996ZM43.6076 89.26V87.206V86.8012V80.5327H44.6133V89.26H43.6076ZM50.25 89.3793C49.608 89.3793 49.0611 89.2046 48.6094 88.8552C48.1577 88.5029 47.8125 87.9929 47.5739 87.3253C47.3352 86.6549 47.2159 85.8452 47.2159 84.8964C47.2159 83.9532 47.3352 83.1478 47.5739 82.4802C47.8153 81.8097 48.1619 81.2983 48.6136 80.9461C49.0682 80.591 49.6136 80.4134 50.25 80.4134C50.8864 80.4134 51.4304 80.591 51.8821 80.9461C52.3366 81.2983 52.6832 81.8097 52.9219 82.4802C53.1634 83.1478 53.2841 83.9532 53.2841 84.8964C53.2841 85.8452 53.1648 86.6549 52.9261 87.3253C52.6875 87.9929 52.3423 88.5029 51.8906 88.8552C51.4389 89.2046 50.892 89.3793 50.25 89.3793ZM50.25 88.4418C50.8864 88.4418 51.3807 88.135 51.733 87.5214C52.0852 86.9077 52.2614 86.0327 52.2614 84.8964C52.2614 84.1407 52.1804 83.4972 52.0185 82.966C51.8594 82.4347 51.6293 82.0299 51.3281 81.7515C51.0298 81.4731 50.6705 81.3339 50.25 81.3339C49.6193 81.3339 49.1264 81.6449 48.7713 82.2671C48.4162 82.8864 48.2386 83.7628 48.2386 84.8964C48.2386 85.652 48.3182 86.2941 48.4773 86.8225C48.6364 87.3509 48.8651 87.7529 49.1634 88.0285C49.4645 88.304 49.8267 88.4418 50.25 88.4418Z" fill="#F4F1ED"/>
<path d="M59 45H65" stroke="#F4F1ED"/>
<path d="M42.8129 49.3793C42.4549 49.3736 42.0969 49.3054 41.739 49.1748C41.381 49.0441 41.0543 48.8239 40.7589 48.5143C40.4634 48.2018 40.2262 47.7799 40.0472 47.2486C39.8683 46.7145 39.7788 46.0441 39.7788 45.2373C39.7788 44.4645 39.8512 43.7799 39.9961 43.1833C40.141 42.5839 40.3512 42.0796 40.6268 41.6705C40.9023 41.2586 41.2347 40.9461 41.6239 40.733C42.016 40.5199 42.4577 40.4134 42.9492 40.4134C43.4379 40.4134 43.8725 40.5114 44.2532 40.7074C44.6367 40.9006 44.9492 41.1705 45.1907 41.5171C45.4322 41.8637 45.5884 42.2628 45.6594 42.7145H44.6197C44.5231 42.3225 44.3356 41.9972 44.0572 41.7387C43.7788 41.4802 43.4094 41.3509 42.9492 41.3509C42.2731 41.3509 41.7404 41.6449 41.3512 42.233C40.9648 42.8211 40.7702 43.6464 40.7674 44.7089H40.8356C40.9947 44.4674 41.1836 44.2614 41.4023 44.091C41.6239 43.9177 41.8683 43.7841 42.1353 43.6904C42.4023 43.5966 42.685 43.5498 42.9833 43.5498C43.4833 43.5498 43.9407 43.6748 44.3555 43.9248C44.7702 44.1719 45.1026 44.5143 45.3526 44.9518C45.6026 45.3864 45.7276 45.885 45.7276 46.4475C45.7276 46.9873 45.6069 47.4816 45.3654 47.9304C45.1239 48.3765 44.7844 48.7316 44.3469 48.9958C43.9123 49.2572 43.4009 49.385 42.8129 49.3793ZM42.8129 48.4418C43.1708 48.4418 43.4918 48.3523 43.7759 48.1733C44.0629 47.9944 44.2887 47.7543 44.4535 47.4532C44.6211 47.152 44.7049 46.8168 44.7049 46.4475C44.7049 46.0867 44.6239 45.7586 44.462 45.4631C44.3029 45.1648 44.0827 44.9276 43.8015 44.7515C43.5231 44.5753 43.2049 44.4873 42.8469 44.4873C42.5771 44.4873 42.3256 44.5412 42.0927 44.6492C41.8597 44.7543 41.6552 44.8992 41.479 45.0839C41.3058 45.2685 41.1694 45.4802 41.07 45.7188C40.9705 45.9546 40.9208 46.2032 40.9208 46.4645C40.9208 46.8111 41.0018 47.135 41.1637 47.4361C41.3285 47.7373 41.5529 47.9802 41.837 48.1648C42.1239 48.3495 42.4492 48.4418 42.8129 48.4418ZM50.25 49.3793C49.608 49.3793 49.0611 49.2046 48.6094 48.8552C48.1577 48.5029 47.8125 47.9929 47.5739 47.3253C47.3352 46.6549 47.2159 45.8452 47.2159 44.8964C47.2159 43.9532 47.3352 43.1478 47.5739 42.4802C47.8153 41.8097 48.1619 41.2983 48.6136 40.9461C49.0682 40.591 49.6136 40.4134 50.25 40.4134C50.8864 40.4134 51.4304 40.591 51.8821 40.9461C52.3366 41.2983 52.6832 41.8097 52.9219 42.4802C53.1634 43.1478 53.2841 43.9532 53.2841 44.8964C53.2841 45.8452 53.1648 46.6549 52.9261 47.3253C52.6875 47.9929 52.3423 48.5029 51.8906 48.8552C51.4389 49.2046 50.892 49.3793 50.25 49.3793ZM50.25 48.4418C50.8864 48.4418 51.3807 48.135 51.733 47.5214C52.0852 46.9077 52.2614 46.0327 52.2614 44.8964C52.2614 44.1407 52.1804 43.4972 52.0185 42.966C51.8594 42.4347 51.6293 42.0299 51.3281 41.7515C51.0298 41.4731 50.6705 41.3339 50.25 41.3339C49.6193 41.3339 49.1264 41.6449 48.7713 42.2671C48.4162 42.8864 48.2386 43.7628 48.2386 44.8964C48.2386 45.652 48.3182 46.2941 48.4773 46.8225C48.6364 47.3509 48.8651 47.7529 49.1634 48.0285C49.4645 48.304 49.8267 48.4418 50.25 48.4418Z" fill="#F4F1ED"/>
<path d="M59 5H65" stroke="#F4F1ED"/>
<path d="M42.8043 13.5746C42.2191 13.5746 41.7021 13.4709 41.2532 13.2635C40.8072 13.0533 40.4592 12.765 40.2092 12.3985C39.9592 12.0292 39.8356 11.6087 39.8384 11.1371C39.8356 10.7678 39.908 10.4269 40.0558 10.1144C40.2035 9.79906 40.4052 9.53627 40.6609 9.32605C40.9194 9.11298 41.2077 8.97803 41.5259 8.92122V8.87008C41.1083 8.76213 40.7759 8.52775 40.5288 8.16695C40.2816 7.80332 40.1594 7.38997 40.1623 6.9269C40.1594 6.48372 40.2717 6.08741 40.4989 5.73798C40.7262 5.38855 41.0387 5.11298 41.4364 4.91127C41.837 4.70957 42.293 4.60872 42.8043 4.60872C43.31 4.60872 43.7617 4.70957 44.1594 4.91127C44.5572 5.11298 44.8697 5.38855 45.0969 5.73798C45.3271 6.08741 45.4435 6.48372 45.4464 6.9269C45.4435 7.38997 45.3171 7.80332 45.0671 8.16695C44.82 8.52775 44.4918 8.76213 44.0827 8.87008V8.92122C44.3981 8.97803 44.6822 9.11298 44.935 9.32605C45.1879 9.53627 45.3896 9.79906 45.5401 10.1144C45.6907 10.4269 45.7674 10.7678 45.7702 11.1371C45.7674 11.6087 45.6396 12.0292 45.3867 12.3985C45.1367 12.765 44.7887 13.0533 44.3427 13.2635C43.8995 13.4709 43.3867 13.5746 42.8043 13.5746ZM42.8043 12.6371C43.1992 12.6371 43.5401 12.5732 43.8271 12.4454C44.114 12.3175 44.3356 12.1371 44.4918 11.9042C44.6481 11.6712 44.7276 11.3985 44.7305 11.086C44.7276 10.7564 44.6424 10.4653 44.4748 10.2124C44.3072 9.95957 44.0785 9.7607 43.7887 9.61582C43.5018 9.47093 43.1737 9.39849 42.8043 9.39849C42.4322 9.39849 42.0998 9.47093 41.8072 9.61582C41.5174 9.7607 41.2887 9.95957 41.1211 10.2124C40.9563 10.4653 40.8754 10.7564 40.8782 11.086C40.8754 11.3985 40.9506 11.6712 41.104 11.9042C41.2603 12.1371 41.4833 12.3175 41.7731 12.4454C42.0629 12.5732 42.4066 12.6371 42.8043 12.6371ZM42.8043 8.49508C43.1168 8.49508 43.3938 8.43258 43.6353 8.30758C43.8796 8.18258 44.0714 8.00786 44.2106 7.78343C44.3498 7.559 44.4208 7.29622 44.4237 6.99508C44.4208 6.69962 44.3512 6.44252 44.2148 6.22377C44.0785 6.00218 43.8896 5.83173 43.6481 5.71241C43.4066 5.59025 43.1254 5.52917 42.8043 5.52917C42.4776 5.52917 42.1921 5.59025 41.9478 5.71241C41.7035 5.83173 41.5146 6.00218 41.381 6.22377C41.2475 6.44252 41.1822 6.69962 41.185 6.99508C41.1822 7.29622 41.2489 7.559 41.3853 7.78343C41.5245 8.00786 41.7163 8.18258 41.9606 8.30758C42.2049 8.43258 42.4862 8.49508 42.8043 8.49508ZM50.25 13.5746C49.608 13.5746 49.0611 13.3999 48.6094 13.0505C48.1577 12.6982 47.8125 12.1883 47.5739 11.5206C47.3352 10.8502 47.2159 10.0405 47.2159 9.09167C47.2159 8.14849 47.3352 7.34309 47.5739 6.67548C47.8153 6.00502 48.1619 5.49366 48.6136 5.14139C49.0682 4.78627 49.6136 4.60872 50.25 4.60872C50.8864 4.60872 51.4304 4.78627 51.8821 5.14139C52.3366 5.49366 52.6832 6.00502 52.9219 6.67548C53.1634 7.34309 53.2841 8.14849 53.2841 9.09167C53.2841 10.0405 53.1648 10.8502 52.9261 11.5206C52.6875 12.1883 52.3423 12.6982 51.8906 13.0505C51.4389 13.3999 50.892 13.5746 50.25 13.5746ZM50.25 12.6371C50.8864 12.6371 51.3807 12.3303 51.733 11.7167C52.0852 11.103 52.2614 10.228 52.2614 9.09167C52.2614 8.33599 52.1804 7.69252 52.0185 7.16127C51.8594 6.63002 51.6293 6.22519 51.3281 5.94678C51.0298 5.66838 50.6705 5.52917 50.25 5.52917C49.6193 5.52917 49.1264 5.84025 48.7713 6.46241C48.4162 7.08173 48.2386 7.95815 48.2386 9.09167C48.2386 9.84735 48.3182 10.4894 48.4773 11.0178C48.6364 11.5462 48.8651 11.9482 49.1634 12.2238C49.4645 12.4993 49.8267 12.6371 50.25 12.6371Z" fill="#F4F1ED"/>
<path d="M65 165H663" stroke="#F4F1ED" stroke-opacity="0.7"/>
<path d="M65 125H663" stroke="#F4F1ED" stroke-opacity="0.7"/>
<path d="M65 85H663" stroke="#F4F1ED" stroke-opacity="0.7"/>
<path d="M65 45H663" stroke="#F4F1ED" stroke-opacity="0.7"/>
<path d="M65 5H663" stroke="#F4F1ED" stroke-opacity="0.7"/>
<path d="M65 5V165" stroke="#F4F1ED" stroke-opacity="0.7"/>
<path d="M119.364 5V165" stroke="#F4F1ED" stroke-opacity="0.7"/>
<path d="M173.727 5V165" stroke="#F4F1ED" stroke-opacity="0.7"/>
<path d="M228.091 5V165" stroke="#F4F1ED" stroke-opacity="0.7"/>
<path d="M282.455 5V165" stroke="#F4F1ED" stroke-opacity="0.7"/>
<path d="M336.818 5V165" stroke="#F4F1ED" stroke-opacity="0.7"/>
<path d="M391.182 5V165" stroke="#F4F1ED" stroke-opacity="0.7"/>
<path d="M445.545 5V165" stroke="#F4F1ED" stroke-opacity="0.7"/>
<path d="M499.909 5V165" stroke="#F4F1ED" stroke-opacity="0.7"/>
<path d="M554.273 5V165" stroke="#F4F1ED" stroke-opacity="0.7"/>
<path d="M608.636 5V165" stroke="#F4F1ED" stroke-opacity="0.7"/>
<path d="M663 5V165" stroke="#F4F1ED" stroke-opacity="0.7"/>
<path d="M65 57L119.364 11L173.727 37L228.091 113L282.455 145L336.818 127L391.182 163L445.545 141L499.909 17L554.273 5L608.636 115L663 85" stroke="#E36414" stroke-width="4"/>
</svg>
