<svg width="52" height="51" viewBox="0 0 52 51" fill="none" xmlns="http://www.w3.org/2000/svg">
<circle cx="26" cy="15" r="15" fill="#F4F1ED"/>
<path fill-rule="evenodd" clip-rule="evenodd" d="M18.5 26C18.5 26 17 26 17 24.5C17 23 18.5 18.5 26 18.5C33.5 18.5 35 23 35 24.5C35 26 33.5 26 33.5 26H18.5ZM26 17C27.1935 17 28.3381 16.5259 29.182 15.682C30.0259 14.8381 30.5 13.6935 30.5 12.5C30.5 11.3065 30.0259 10.1619 29.182 9.31802C28.3381 8.47411 27.1935 8 26 8C24.8065 8 23.6619 8.47411 22.818 9.31802C21.9741 10.1619 21.5 11.3065 21.5 12.5C21.5 13.6935 21.9741 14.8381 22.818 15.682C23.6619 16.5259 24.8065 17 26 17Z" fill="#25392F"/>
<path d="M5.208 47.098C4.47067 47.098 3.81267 46.9347 3.234 46.608C2.65533 46.272 2.198 45.8147 1.862 45.236C1.53533 44.648 1.372 43.9853 1.372 43.248V37.2H2.464V43.122C2.464 43.6727 2.58533 44.1673 2.828 44.606C3.07067 45.0447 3.39733 45.39 3.808 45.642C4.228 45.894 4.69467 46.02 5.208 46.02C5.74933 46.02 6.23 45.894 6.65 45.642C7.07933 45.39 7.41533 45.0447 7.658 44.606C7.90067 44.1673 8.022 43.6727 8.022 43.122V37.2H9.072V43.248C9.072 43.9853 8.904 44.648 8.568 45.236C8.24133 45.8147 7.784 46.272 7.196 46.608C6.61733 46.9347 5.95467 47.098 5.208 47.098ZM13.875 47.14C13.2497 47.14 12.6897 47.0233 12.195 46.79C11.7003 46.5567 11.3083 46.2487 11.019 45.866L11.761 45.222C12.0317 45.5487 12.349 45.796 12.713 45.964C13.0863 46.132 13.5017 46.216 13.959 46.216C14.1923 46.216 14.4023 46.1927 14.589 46.146C14.7757 46.09 14.939 46.0107 15.079 45.908C15.219 45.8053 15.3263 45.684 15.401 45.544C15.4757 45.404 15.513 45.25 15.513 45.082C15.513 44.774 15.3777 44.5173 15.107 44.312C14.9857 44.228 14.813 44.144 14.589 44.06C14.365 43.9667 14.0943 43.878 13.777 43.794C13.2543 43.6447 12.8203 43.4953 12.475 43.346C12.1297 43.1873 11.859 43.0053 11.663 42.8C11.523 42.632 11.4157 42.45 11.341 42.254C11.2757 42.058 11.243 41.8433 11.243 41.61C11.243 41.3113 11.3037 41.036 11.425 40.784C11.5557 40.532 11.733 40.3127 11.957 40.126C12.1903 39.93 12.461 39.7853 12.769 39.692C13.0863 39.5893 13.427 39.538 13.791 39.538C14.1363 39.538 14.477 39.5847 14.813 39.678C15.149 39.7713 15.4617 39.9067 15.751 40.084C16.0403 40.2613 16.2877 40.4713 16.493 40.714L15.849 41.414C15.6717 41.2273 15.4757 41.0593 15.261 40.91C15.0463 40.7607 14.8177 40.644 14.575 40.56C14.3417 40.476 14.099 40.434 13.847 40.434C13.623 40.434 13.413 40.462 13.217 40.518C13.0303 40.574 12.867 40.6533 12.727 40.756C12.5963 40.8493 12.4937 40.966 12.419 41.106C12.3537 41.246 12.321 41.4 12.321 41.568C12.321 41.708 12.349 41.834 12.405 41.946C12.461 42.058 12.5403 42.156 12.643 42.24C12.7737 42.3427 12.9557 42.4407 13.189 42.534C13.4317 42.618 13.7303 42.7067 14.085 42.8C14.4957 42.912 14.841 43.0287 15.121 43.15C15.4103 43.262 15.6483 43.3973 15.835 43.556C16.087 43.7427 16.2643 43.9573 16.367 44.2C16.479 44.4427 16.535 44.718 16.535 45.026C16.535 45.4367 16.4183 45.8007 16.185 46.118C15.961 46.4353 15.6483 46.6873 15.247 46.874C14.8457 47.0513 14.3883 47.14 13.875 47.14ZM20.7702 47.14C20.2102 47.14 19.7342 47.028 19.3422 46.804C18.9595 46.5707 18.6655 46.2347 18.4602 45.796C18.2642 45.3573 18.1662 44.8113 18.1662 44.158V39.692H19.2302V43.948C19.2302 44.4427 19.2955 44.858 19.4262 45.194C19.5662 45.5207 19.7715 45.768 20.0422 45.936C20.3222 46.104 20.6629 46.188 21.0642 46.188C21.3722 46.188 21.6569 46.1367 21.9182 46.034C22.1795 45.922 22.4082 45.7727 22.6042 45.586C22.8002 45.3993 22.9542 45.18 23.0662 44.928C23.1782 44.676 23.2342 44.41 23.2342 44.13V39.692H24.2842V47H23.2482L23.2062 45.46L23.3742 45.376C23.2622 45.7027 23.0755 46.0013 22.8142 46.272C22.5529 46.5333 22.2402 46.7433 21.8762 46.902C21.5215 47.0607 21.1529 47.14 20.7702 47.14ZM29.1846 47.14C28.55 47.14 27.976 46.9767 27.4626 46.65C26.9493 46.314 26.5433 45.8613 26.2446 45.292C25.946 44.7133 25.7966 44.06 25.7966 43.332C25.7966 42.5947 25.9506 41.9413 26.2586 41.372C26.5666 40.8027 26.9773 40.3547 27.4906 40.028C28.0133 39.7013 28.5966 39.538 29.2406 39.538C29.6233 39.538 29.978 39.594 30.3046 39.706C30.6313 39.818 30.9206 39.9767 31.1726 40.182C31.434 40.378 31.6486 40.6113 31.8166 40.882C31.994 41.1433 32.1153 41.428 32.1806 41.736L31.8726 41.582L31.9146 39.692H32.9646V47H31.9006V45.208L32.1806 45.026C32.1153 45.306 31.9893 45.5767 31.8026 45.838C31.616 46.09 31.3873 46.314 31.1166 46.51C30.8553 46.706 30.5566 46.86 30.2206 46.972C29.894 47.084 29.5486 47.14 29.1846 47.14ZM29.4226 46.132C29.908 46.132 30.342 46.0153 30.7246 45.782C31.1073 45.5393 31.406 45.208 31.6206 44.788C31.8446 44.3587 31.9566 43.8733 31.9566 43.332C31.9566 42.7907 31.8446 42.31 31.6206 41.89C31.406 41.47 31.1073 41.1387 30.7246 40.896C30.342 40.6533 29.908 40.532 29.4226 40.532C28.928 40.532 28.4893 40.6533 28.1066 40.896C27.7333 41.1387 27.4346 41.47 27.2106 41.89C26.996 42.31 26.8886 42.7907 26.8886 43.332C26.8886 43.864 26.996 44.3447 27.2106 44.774C27.4253 45.194 27.724 45.5253 28.1066 45.768C28.4893 46.0107 28.928 46.132 29.4226 46.132ZM28.7646 38.614L28.3866 38.04L30.3746 36.374L31.0606 37.256L28.7646 38.614ZM35.0103 47V39.692H36.0603L36.0883 41.638L35.9763 41.372C36.0789 41.0453 36.2423 40.742 36.4663 40.462C36.6996 40.182 36.9749 39.958 37.2923 39.79C37.6096 39.622 37.9596 39.538 38.3423 39.538C38.5009 39.538 38.6503 39.552 38.7903 39.58C38.9303 39.5987 39.0469 39.6267 39.1403 39.664L38.8463 40.84C38.7249 40.784 38.5989 40.7467 38.4683 40.728C38.3469 40.7 38.2303 40.686 38.1183 40.686C37.8009 40.686 37.5163 40.742 37.2643 40.854C37.0123 40.966 36.7976 41.1247 36.6203 41.33C36.4429 41.526 36.3076 41.7547 36.2143 42.016C36.1209 42.2773 36.0743 42.5573 36.0743 42.856V47H35.0103ZM40.5129 47V39.692H41.5629V47H40.5129ZM41.0309 38.11C40.7696 38.11 40.5689 38.0447 40.4289 37.914C40.2983 37.774 40.2329 37.5873 40.2329 37.354C40.2329 37.1207 40.3029 36.934 40.4429 36.794C40.5829 36.654 40.7789 36.584 41.0309 36.584C41.2829 36.584 41.4789 36.654 41.6189 36.794C41.7589 36.9247 41.8289 37.1113 41.8289 37.354C41.8289 37.578 41.7589 37.76 41.6189 37.9C41.4789 38.04 41.2829 38.11 41.0309 38.11ZM47.09 47.14C46.362 47.14 45.7133 46.9767 45.144 46.65C44.584 46.3233 44.1407 45.8707 43.814 45.292C43.4967 44.7133 43.338 44.0553 43.338 43.318C43.338 42.59 43.4967 41.9413 43.814 41.372C44.1407 40.8027 44.584 40.3547 45.144 40.028C45.7133 39.7013 46.362 39.538 47.09 39.538C47.8087 39.538 48.448 39.7013 49.008 40.028C49.5773 40.3547 50.0207 40.8027 50.338 41.372C50.6647 41.9413 50.828 42.59 50.828 43.318C50.828 44.0553 50.6647 44.7133 50.338 45.292C50.0207 45.8707 49.5773 46.3233 49.008 46.65C48.448 46.9767 47.8087 47.14 47.09 47.14ZM47.09 46.146C47.6033 46.146 48.0607 46.0247 48.462 45.782C48.8633 45.53 49.176 45.194 49.4 44.774C49.624 44.3447 49.736 43.8593 49.736 43.318C49.736 42.7767 49.624 42.296 49.4 41.876C49.176 41.456 48.8633 41.1293 48.462 40.896C48.0607 40.6533 47.6033 40.532 47.09 40.532C46.5767 40.532 46.1147 40.6533 45.704 40.896C45.3027 41.1293 44.9853 41.4607 44.752 41.89C44.528 42.31 44.4207 42.786 44.43 43.318C44.4207 43.8593 44.528 44.3447 44.752 44.774C44.9853 45.194 45.3027 45.53 45.704 45.782C46.1147 46.0247 46.5767 46.146 47.09 46.146Z" fill="#F4F1ED"/>
</svg>
