<svg width="57" height="51" viewBox="0 0 57 51" fill="none" xmlns="http://www.w3.org/2000/svg">
<path fill-rule="evenodd" clip-rule="evenodd" d="M14 2.8125C14 2.56386 14.0988 2.3254 14.2746 2.14959C14.4504 1.97377 14.6889 1.875 14.9375 1.875H17.75C17.9591 1.87506 18.1622 1.94503 18.327 2.0738C18.4918 2.20256 18.6088 2.38272 18.6594 2.58562L19.4188 5.625H41.1875C41.3261 5.62508 41.4631 5.65592 41.5883 5.71528C41.7136 5.77465 41.8242 5.86107 41.9121 5.96831C42 6.07555 42.063 6.20095 42.0965 6.33548C42.1301 6.47 42.1334 6.61029 42.1062 6.74625L40.2312 16.1212C40.1902 16.3257 40.0822 16.5106 39.9243 16.6468C39.7664 16.783 39.5676 16.8626 39.3594 16.8731L21.74 17.7581L22.2781 20.625H38.375C38.6236 20.625 38.8621 20.7238 39.0379 20.8996C39.2137 21.0754 39.3125 21.3139 39.3125 21.5625C39.3125 21.8111 39.2137 22.0496 39.0379 22.2254C38.8621 22.4012 38.6236 22.5 38.375 22.5H21.5C21.2814 22.4998 21.0698 22.4232 20.9017 22.2836C20.7336 22.1439 20.6196 21.9498 20.5794 21.735L17.7687 6.76313L17.0187 3.75H14.9375C14.6889 3.75 14.4504 3.65123 14.2746 3.47541C14.0988 3.2996 14 3.06114 14 2.8125ZM19.8162 7.5L21.3912 15.8981L38.5363 15.0375L40.0438 7.5H19.8162ZM23.375 22.5C22.3804 22.5 21.4266 22.8951 20.7233 23.5984C20.0201 24.3016 19.625 25.2554 19.625 26.25C19.625 27.2446 20.0201 28.1984 20.7233 28.9016C21.4266 29.6049 22.3804 30 23.375 30C24.3696 30 25.3234 29.6049 26.0267 28.9016C26.7299 28.1984 27.125 27.2446 27.125 26.25C27.125 25.2554 26.7299 24.3016 26.0267 23.5984C25.3234 22.8951 24.3696 22.5 23.375 22.5ZM36.5 22.5C35.5054 22.5 34.5516 22.8951 33.8484 23.5984C33.1451 24.3016 32.75 25.2554 32.75 26.25C32.75 27.2446 33.1451 28.1984 33.8484 28.9016C34.5516 29.6049 35.5054 30 36.5 30C37.4946 30 38.4484 29.6049 39.1516 28.9016C39.8549 28.1984 40.25 27.2446 40.25 26.25C40.25 25.2554 39.8549 24.3016 39.1516 23.5984C38.4484 22.8951 37.4946 22.5 36.5 22.5ZM23.375 24.375C22.8777 24.375 22.4008 24.5725 22.0492 24.9242C21.6975 25.2758 21.5 25.7527 21.5 26.25C21.5 26.7473 21.6975 27.2242 22.0492 27.5758C22.4008 27.9275 22.8777 28.125 23.375 28.125C23.8723 28.125 24.3492 27.9275 24.7008 27.5758C25.0525 27.2242 25.25 26.7473 25.25 26.25C25.25 25.7527 25.0525 25.2758 24.7008 24.9242C24.3492 24.5725 23.8723 24.375 23.375 24.375ZM36.5 24.375C36.0027 24.375 35.5258 24.5725 35.1742 24.9242C34.8225 25.2758 34.625 25.7527 34.625 26.25C34.625 26.7473 34.8225 27.2242 35.1742 27.5758C35.5258 27.9275 36.0027 28.125 36.5 28.125C36.9973 28.125 37.4742 27.9275 37.8258 27.5758C38.1775 27.2242 38.375 26.7473 38.375 26.25C38.375 25.7527 38.1775 25.2758 37.8258 24.9242C37.4742 24.5725 36.9973 24.375 36.5 24.375Z" fill="#F4F1ED"/>
<path d="M5.502 47.14C4.802 47.14 4.158 47.0187 3.57 46.776C2.982 46.524 2.47333 46.174 2.044 45.726C1.61467 45.2687 1.27867 44.732 1.036 44.116C0.802667 43.5 0.686 42.828 0.686 42.1C0.686 41.3813 0.802667 40.7233 1.036 40.126C1.27867 39.5193 1.61933 38.992 2.058 38.544C2.49667 38.0867 3.00533 37.7367 3.584 37.494C4.16267 37.2513 4.79733 37.13 5.488 37.13C5.94533 37.13 6.398 37.2047 6.846 37.354C7.294 37.494 7.70467 37.69 8.078 37.942C8.46067 38.194 8.77333 38.4833 9.016 38.81L8.26 39.594C8.02667 39.314 7.756 39.0713 7.448 38.866C7.14933 38.6607 6.832 38.502 6.496 38.39C6.16 38.278 5.824 38.222 5.488 38.222C4.96533 38.222 4.47533 38.32 4.018 38.516C3.57 38.7027 3.18267 38.9687 2.856 39.314C2.52933 39.6593 2.27267 40.07 2.086 40.546C1.90867 41.022 1.82 41.54 1.82 42.1C1.82 42.6787 1.90867 43.2107 2.086 43.696C2.27267 44.1813 2.534 44.6013 2.87 44.956C3.21533 45.3013 3.61667 45.572 4.074 45.768C4.54067 45.9547 5.05867 46.048 5.628 46.048C5.964 46.048 6.3 46.0013 6.636 45.908C6.972 45.8053 7.28 45.6653 7.56 45.488C7.84 45.3107 8.078 45.11 8.274 44.886L8.834 45.796C8.61933 46.0573 8.33 46.2907 7.966 46.496C7.61133 46.692 7.21933 46.8507 6.79 46.972C6.36067 47.084 5.93133 47.14 5.502 47.14ZM13.3389 47.14C12.7043 47.14 12.1303 46.9767 11.6169 46.65C11.1036 46.314 10.6976 45.8613 10.3989 45.292C10.1003 44.7133 9.95094 44.06 9.95094 43.332C9.95094 42.5947 10.1049 41.9413 10.4129 41.372C10.7209 40.8027 11.1316 40.3547 11.6449 40.028C12.1676 39.7013 12.7509 39.538 13.3949 39.538C13.7776 39.538 14.1323 39.594 14.4589 39.706C14.7856 39.818 15.0749 39.9767 15.3269 40.182C15.5883 40.378 15.8029 40.6113 15.9709 40.882C16.1483 41.1433 16.2696 41.428 16.3349 41.736L16.0269 41.582L16.0689 39.692H17.1189V47H16.0549V45.208L16.3349 45.026C16.2696 45.306 16.1436 45.5767 15.9569 45.838C15.7703 46.09 15.5416 46.314 15.2709 46.51C15.0096 46.706 14.7109 46.86 14.3749 46.972C14.0483 47.084 13.7029 47.14 13.3389 47.14ZM13.5769 46.132C14.0623 46.132 14.4963 46.0153 14.8789 45.782C15.2616 45.5393 15.5603 45.208 15.7749 44.788C15.9989 44.3587 16.1109 43.8733 16.1109 43.332C16.1109 42.7907 15.9989 42.31 15.7749 41.89C15.5603 41.47 15.2616 41.1387 14.8789 40.896C14.4963 40.6533 14.0623 40.532 13.5769 40.532C13.0823 40.532 12.6436 40.6533 12.2609 40.896C11.8876 41.1387 11.5889 41.47 11.3649 41.89C11.1503 42.31 11.0429 42.7907 11.0429 43.332C11.0429 43.864 11.1503 44.3447 11.3649 44.774C11.5796 45.194 11.8783 45.5253 12.2609 45.768C12.6436 46.0107 13.0823 46.132 13.5769 46.132ZM19.1646 47V39.692H20.2146L20.2426 41.638L20.1306 41.372C20.2332 41.0453 20.3966 40.742 20.6206 40.462C20.8539 40.182 21.1292 39.958 21.4466 39.79C21.7639 39.622 22.1139 39.538 22.4966 39.538C22.6552 39.538 22.8046 39.552 22.9446 39.58C23.0846 39.5987 23.2012 39.6267 23.2946 39.664L23.0006 40.84C22.8792 40.784 22.7532 40.7467 22.6226 40.728C22.5012 40.7 22.3846 40.686 22.2726 40.686C21.9552 40.686 21.6706 40.742 21.4186 40.854C21.1666 40.966 20.9519 41.1247 20.7746 41.33C20.5972 41.526 20.4619 41.7547 20.3686 42.016C20.2752 42.2773 20.2286 42.5573 20.2286 42.856V47H19.1646ZM24.3872 47V39.692H25.4372L25.4652 41.638L25.3532 41.372C25.4559 41.0453 25.6192 40.742 25.8432 40.462C26.0766 40.182 26.3519 39.958 26.6692 39.79C26.9866 39.622 27.3366 39.538 27.7192 39.538C27.8779 39.538 28.0272 39.552 28.1672 39.58C28.3072 39.5987 28.4239 39.6267 28.5172 39.664L28.2232 40.84C28.1019 40.784 27.9759 40.7467 27.8452 40.728C27.7239 40.7 27.6072 40.686 27.4952 40.686C27.1779 40.686 26.8932 40.742 26.6412 40.854C26.3892 40.966 26.1746 41.1247 25.9972 41.33C25.8199 41.526 25.6846 41.7547 25.5912 42.016C25.4979 42.2773 25.4512 42.5573 25.4512 42.856V47H24.3872ZM29.8899 47V39.692H30.9399V47H29.8899ZM30.4079 38.11C30.1466 38.11 29.9459 38.0447 29.8059 37.914C29.6752 37.774 29.6099 37.5873 29.6099 37.354C29.6099 37.1207 29.6799 36.934 29.8199 36.794C29.9599 36.654 30.1559 36.584 30.4079 36.584C30.6599 36.584 30.8559 36.654 30.9959 36.794C31.1359 36.9247 31.2059 37.1113 31.2059 37.354C31.2059 37.578 31.1359 37.76 30.9959 37.9C30.8559 38.04 30.6599 38.11 30.4079 38.11ZM33.2329 47V39.692H34.2689L34.3109 41.218L34.1429 41.288C34.2363 40.9707 34.4183 40.6813 34.6889 40.42C34.9596 40.1587 35.2816 39.9487 35.6549 39.79C36.0376 39.622 36.4296 39.538 36.8309 39.538C37.3723 39.538 37.8249 39.6453 38.1889 39.86C38.5529 40.0747 38.8283 40.406 39.0149 40.854C39.2016 41.302 39.2949 41.8713 39.2949 42.562V47H38.2309V42.618C38.2309 42.1327 38.1656 41.736 38.0349 41.428C37.9136 41.1107 37.7223 40.8773 37.4609 40.728C37.1996 40.5787 36.8776 40.5087 36.4949 40.518C36.1776 40.518 35.8836 40.574 35.6129 40.686C35.3423 40.7887 35.1089 40.9333 34.9129 41.12C34.7169 41.3067 34.5629 41.5213 34.4509 41.764C34.3389 42.0067 34.2829 42.268 34.2829 42.548V47H33.7649C33.6996 47 33.6249 47 33.5409 47C33.4569 47 33.3543 47 33.2329 47ZM41.2993 47V36.64H42.3493V41.288L42.1393 41.498C42.242 41.1153 42.4333 40.7793 42.7133 40.49C42.9933 40.1913 43.32 39.958 43.6933 39.79C44.076 39.622 44.4633 39.538 44.8553 39.538C45.4153 39.538 45.882 39.6453 46.2553 39.86C46.6287 40.0747 46.904 40.406 47.0813 40.854C47.268 41.302 47.3613 41.8713 47.3613 42.562V47H46.2973V42.618C46.2973 42.1327 46.232 41.736 46.1013 41.428C45.98 41.1107 45.7887 40.8773 45.5273 40.728C45.266 40.5787 44.9393 40.5087 44.5473 40.518C44.2393 40.518 43.95 40.574 43.6793 40.686C43.4087 40.7887 43.1753 40.9333 42.9793 41.12C42.7833 41.3067 42.6293 41.5213 42.5173 41.764C42.4053 42.0067 42.3493 42.268 42.3493 42.548V47H41.8313C41.766 47 41.6913 47 41.6073 47C41.5233 47 41.4207 47 41.2993 47ZM52.5998 47.14C51.8718 47.14 51.2231 46.9767 50.6538 46.65C50.0938 46.3233 49.6504 45.8707 49.3238 45.292C49.0064 44.7133 48.8478 44.0553 48.8478 43.318C48.8478 42.59 49.0064 41.9413 49.3238 41.372C49.6504 40.8027 50.0938 40.3547 50.6538 40.028C51.2231 39.7013 51.8718 39.538 52.5998 39.538C53.3184 39.538 53.9578 39.7013 54.5178 40.028C55.0871 40.3547 55.5304 40.8027 55.8478 41.372C56.1744 41.9413 56.3378 42.59 56.3378 43.318C56.3378 44.0553 56.1744 44.7133 55.8478 45.292C55.5304 45.8707 55.0871 46.3233 54.5178 46.65C53.9578 46.9767 53.3184 47.14 52.5998 47.14ZM52.5998 46.146C53.1131 46.146 53.5704 46.0247 53.9718 45.782C54.3731 45.53 54.6858 45.194 54.9098 44.774C55.1338 44.3447 55.2458 43.8593 55.2458 43.318C55.2458 42.7767 55.1338 42.296 54.9098 41.876C54.6858 41.456 54.3731 41.1293 53.9718 40.896C53.5704 40.6533 53.1131 40.532 52.5998 40.532C52.0864 40.532 51.6244 40.6533 51.2138 40.896C50.8124 41.1293 50.4951 41.4607 50.2618 41.89C50.0378 42.31 49.9304 42.786 49.9398 43.318C49.9304 43.8593 50.0378 44.3447 50.2618 44.774C50.4951 45.194 50.8124 45.53 51.2138 45.782C51.6244 46.0247 52.0864 46.146 52.5998 46.146Z" fill="#F4F1ED"/>
</svg>
