<svg width="895" height="242" viewBox="0 0 895 242" fill="none" xmlns="http://www.w3.org/2000/svg">
<mask id="mask0_121_3909" style="mask-type:luminance" maskUnits="userSpaceOnUse" x="0" y="99" width="346" height="118">
<path d="M0 99.7095H345.764V216.067H0V99.7095Z" fill="white"/>
</mask>
<g mask="url(#mask0_121_3909)">
<path fill-rule="evenodd" clip-rule="evenodd" d="M145.122 149.664C142.165 147.642 138.166 141.956 135.3 140.242C132.616 143.28 109.018 160.318 104.257 163.973C99.9493 167.273 89.4202 176.123 85.2847 178.191C80.2605 175.815 76.2611 169.957 71.3729 167.364C67.7181 168.633 57.4157 176.513 53.4526 179.116C43.3225 185.717 8.23464 209.275 0 215.568C7.92629 214.335 31.3878 206.537 40.6835 203.807C57.4611 198.883 52.1739 199.935 67.7997 210.236C70.1849 211.823 73.5676 213.981 75.5991 215.568L76.0797 215.305C76.0797 215.169 67.3191 199.808 66.5754 198.085C64.9883 194.567 69.5228 181.228 70.9739 177.266C77.8028 182.108 120.11 212.839 122.132 215.033L122.712 214.598C122.749 214.38 113.199 197.514 112.755 195.492C112.274 193.071 118.659 184.438 120.291 181.8L122.486 178.499C123.193 177.71 122.794 178.055 123.547 177.438C125.442 182.507 130.983 193.552 133.541 197.696C132.833 193.379 127.991 176.912 128.48 173.657C128.825 171.191 133.895 152.529 134.865 150.679C137.196 152.438 137.595 153.626 139.399 155.558L162.643 182.507C172.066 193.86 168.855 193.778 179.947 191.838C184.391 191.049 184.173 190.695 187.383 192.808C191.392 195.356 195.573 198.04 199.627 200.597C206.501 204.913 216.803 212.92 224.104 216.049C222.172 213.981 197.468 185.898 195.446 182.589C199.101 183.695 204.161 186.379 207.906 188.093C212.396 190.124 217.148 192.545 220.893 193.905C219.66 191.484 196.28 165.115 195.137 163.927L182.151 149.092C178.849 144.867 179.593 146.1 181.842 139.979C183.157 136.416 184.309 132.761 185.715 129.37C191.038 132.535 196.77 139.889 201.304 144.468C203.018 146.182 205.394 147.859 206.8 149.836C206.891 149.709 207.108 149.355 207.154 149.491C207.154 149.664 207.29 149.138 207.38 149.002L193.024 123.694C191.882 121.617 190.911 120.874 192.009 118.761C193.115 116.775 196.987 110.264 198.348 108.94C200.688 110.7 201.921 111.715 204.379 114.182L216.495 125.008C217.592 126.115 218.3 126.55 219.442 127.52L255.854 160.101C262.855 166.521 269.63 173.439 277.166 179.288L295.522 195.492C292.357 189.199 279.143 172.732 280.331 163.447C284.385 164.326 332.378 204.342 345.764 213.673C340.522 207.734 335.017 203.853 329.34 197.822C326.656 195.011 323.391 192.935 320.752 190.124L294.951 165.686C292.003 163.093 289.582 160.318 286.589 157.716C283.986 155.431 280.549 151.867 277.819 150.063C275.18 154.025 270.074 157.408 267.653 161.551C265.059 160.273 257.396 153.182 254.53 150.453L221.066 119.813C215.434 115.016 204.605 103.391 199.454 100.353C197.078 102.956 195.228 104.053 192.761 106.166L185.978 112.64C183.738 114.97 181.842 115.986 179.285 118.67L152.032 143.416C149.52 145.529 147.498 147.415 145.122 149.664Z" fill="#F4F1ED"/>
</g>
<mask id="mask1_121_3909" style="mask-type:luminance" maskUnits="userSpaceOnUse" x="34" y="27" width="277" height="157">
<path d="M34.5256 27.6572H310.803V183.278H34.5256V27.6572Z" fill="white"/>
</mask>
<g mask="url(#mask1_121_3909)">
<path fill-rule="evenodd" clip-rule="evenodd" d="M172.855 27.6753C203.544 27.6753 231.903 37.804 254.712 54.8332L228.91 55.9395L169.817 58.4512L228.91 60.9086L263.998 62.4501C277.692 74.6916 288.965 89.7077 296.846 106.565L289.092 106.918L230.008 109.385L289.092 111.851L299.358 112.286C306.006 128.354 309.66 145.964 309.66 164.453C309.66 167.183 309.57 169.867 309.434 172.551L294.951 158.867C292.003 156.265 289.582 153.49 286.589 150.897C283.986 148.603 280.549 145.039 277.819 143.235C275.18 147.197 270.074 150.589 267.653 154.723C265.059 153.445 257.396 146.363 254.53 143.679L221.066 112.994C215.434 108.197 204.605 96.6174 199.454 93.5343C197.078 96.1277 195.228 97.234 192.761 99.3468L185.978 105.812C183.738 108.197 181.842 109.203 179.285 111.851L152.032 136.588C149.52 138.746 147.498 140.596 145.122 142.836C142.165 140.814 138.166 135.137 135.3 133.414C132.616 136.452 109.018 153.49 104.257 157.145C99.9493 160.445 89.4202 169.295 85.2847 171.363C80.2605 168.987 76.2611 163.138 71.3729 160.536C67.7181 161.814 57.4158 169.694 53.4526 172.288C50.1515 174.446 44.1569 178.408 37.337 182.988C36.5027 176.912 36.1036 170.746 36.1036 164.453C36.1036 152.221 37.6907 140.378 40.7288 129.062L70.0488 127.829L129.133 125.317L70.0488 122.85L42.9235 121.662C46.7597 110.047 52.1285 99.0838 58.7308 89.0458L109.943 86.8423L168.982 84.3306L109.943 81.8641L65.342 79.9327C90.3452 48.1049 129.224 27.6753 172.855 27.6753Z" fill="#E36414"/>
</g>
<path d="M435.725 39.7104H457.237V47.2911H451.469L432.533 105.978H419.147L401.19 48.2341L384.612 105.978H371.372L352.073 47.2911H346.196V39.7104H367.708V47.2911H361.94L377.974 98.1793L394.915 39.7104H407.974L425.967 98.1793L442.327 47.2911H435.725V39.7104Z" fill="white"/>
<path d="M461.672 60.7113H476.436V98.4694H483.256V105.977H461.745V98.4694H468.238V68.2194H461.672V60.7113ZM466.678 44.6432C466.678 43.8997 466.832 43.1833 467.15 42.5033C467.458 41.805 467.875 41.1975 468.383 40.6897C468.891 40.1819 469.489 39.7829 470.197 39.4928C470.895 39.1845 471.63 39.0212 472.41 39.0212C473.181 39.0212 473.906 39.1845 474.586 39.4928C475.257 39.7829 475.856 40.1819 476.364 40.6897C476.872 41.1975 477.28 41.805 477.597 42.5033C477.905 43.1833 478.069 43.8997 478.069 44.6432C478.069 45.4412 477.905 46.1938 477.597 46.892C477.28 47.5993 476.872 48.2159 476.364 48.7419C475.856 49.2769 475.257 49.703 474.586 50.0113C473.906 50.3287 473.181 50.4829 472.41 50.4829C471.63 50.4829 470.895 50.3287 470.197 50.0113C469.489 49.703 468.891 49.2769 468.383 48.7419C467.875 48.2159 467.458 47.5993 467.15 46.892C466.832 46.1938 466.678 45.4412 466.678 44.6432Z" fill="white"/>
<path d="M490.386 37.9694H505.078V98.4694H511.898V105.978H490.386V98.4694H496.952V45.4775H490.386V37.9694Z" fill="white"/>
<path d="M546.555 37.9694H560.848V98.4694H567.487V105.978H552.722V102.278C551.244 103.756 549.539 104.917 547.607 105.76C545.694 106.576 543.517 106.993 541.078 106.993C538.031 106.993 535.183 106.458 532.553 105.397C529.914 104.336 527.619 102.777 525.66 100.718C523.72 98.6689 522.214 96.1481 521.126 93.1739C520.038 90.1815 519.494 86.7539 519.494 82.9092C519.494 79.409 520.01 76.2262 521.053 73.3699C522.114 70.4954 523.602 68.0381 525.515 66.0069C527.447 63.9757 529.769 62.407 532.48 61.2917C535.183 60.1582 538.194 59.5869 541.513 59.5869C543.708 59.5869 545.703 59.8318 547.499 60.3123C549.312 60.802 551.054 61.6453 552.722 62.8513V45.4775H546.555V37.9694ZM542.13 99.884C544.542 99.884 546.564 99.5394 548.188 98.8321C549.829 98.1067 551.344 97.0367 552.722 95.604V70.2506C551.244 69.0446 549.566 68.165 547.68 67.6028C545.794 67.0497 543.853 66.7686 541.876 66.7686C539.935 66.7686 538.121 67.1313 536.434 67.8567C534.766 68.564 533.287 69.5977 532.009 70.976C530.748 72.3362 529.741 74.0046 528.998 75.9814C528.272 77.9672 527.91 80.2433 527.91 82.8004C527.91 85.6114 528.254 88.0778 528.962 90.1996C529.66 92.3306 530.639 94.1169 531.9 95.5677C533.151 97.0004 534.657 98.0704 536.398 98.7959C538.158 99.5213 540.071 99.884 542.13 99.884Z" fill="white"/>
<path d="M582.965 84.3963C582.965 85.6839 583.046 86.8537 583.219 87.9146C583.409 88.9846 583.69 89.982 584.053 90.9251C585.114 93.854 586.828 96.0574 589.204 97.5264C591.598 99.0044 594.292 99.7389 597.294 99.7389C599.633 99.7389 601.919 99.4125 604.15 98.7596C606.399 98.0886 608.739 97.0549 611.187 95.6766L614.452 101.226C611.496 103.257 608.512 104.772 605.492 105.76C602.49 106.748 599.38 107.247 596.169 107.247C593.095 107.247 590.256 106.739 587.644 105.724C585.032 104.708 582.783 103.203 580.897 101.19C579.029 99.1586 577.569 96.6468 576.508 93.6454C575.437 90.653 574.911 87.1529 574.911 83.1631C574.911 79.9259 575.356 76.8791 576.254 74.0228C577.17 71.1483 578.521 68.6456 580.316 66.5147C582.103 64.3656 584.316 62.6609 586.955 61.4005C589.612 60.1491 592.705 59.5144 596.242 59.5144C599.652 59.5144 602.49 60.0403 604.766 61.0741C607.061 62.1168 608.92 63.4951 610.353 65.2089C611.804 66.9046 612.901 68.836 613.654 71.0123C614.398 73.1886 614.924 75.4192 615.214 77.6862C615.359 78.8015 615.45 79.9259 615.504 81.0594C615.55 82.2019 615.577 83.3082 615.577 84.3963H582.965ZM595.661 66.3333C593.775 66.3333 592.115 66.6144 590.691 67.1676C589.286 67.7026 588.089 68.4733 587.1 69.4889C586.103 70.4864 585.304 71.7015 584.706 73.1523C584.125 74.6031 583.69 76.2353 583.4 78.0489H606.87C606.744 76.3623 606.471 74.8026 606.036 73.3699C605.619 71.9463 604.984 70.7131 604.114 69.6703C603.243 68.6094 602.118 67.7842 600.74 67.2039C599.361 66.6235 597.665 66.3333 595.661 66.3333Z" fill="white"/>
<path d="M659.167 70.2506H650.86V67.4577C649.917 67.4577 648.937 67.6391 647.921 68.0018C646.906 68.3645 645.963 68.9267 645.092 69.6703C644.221 70.4229 643.459 71.375 642.807 72.5357C642.154 73.6782 641.682 75.0293 641.392 76.598V98.4694H649.082V105.978H626.627V98.4694H632.867L632.903 68.2194H626.627V60.7113H641.065V66.95C641.591 66.0069 642.19 65.1364 642.843 64.3384C643.496 63.5405 644.221 62.8513 645.019 62.271C645.836 61.6725 646.733 61.201 647.704 60.8564C648.665 60.5209 649.717 60.3486 650.86 60.3486C652.383 60.3486 653.807 60.3486 655.14 60.3486C656.492 60.3486 657.834 60.3758 659.167 60.4212V70.2506Z" fill="white"/>
<path d="M698.367 98.4694H704.751V77.7949C704.751 74.3129 703.863 71.6833 702.103 69.8879C700.335 68.1015 697.804 67.2038 694.522 67.2038C692.635 67.2038 690.722 67.6663 688.79 68.5821C686.876 69.4798 685.063 70.5951 683.349 71.919V98.4694H689.733V105.977H668.584V98.4694H674.86V68.2194H668.584V60.7113H682.986V66.0431H683.095C684.038 65.1998 685.054 64.4019 686.142 63.6493C687.248 62.8785 688.4 62.2166 689.588 61.6544C690.794 61.1012 692.037 60.666 693.324 60.3486C694.63 60.0403 695.991 59.8771 697.424 59.8771C699.836 59.8771 702.013 60.2216 703.953 60.8927C705.912 61.5455 707.581 62.5611 708.959 63.9394C710.338 65.2996 711.39 67.0497 712.115 69.1987C712.859 71.3296 713.24 73.8595 713.24 76.7794V98.4694H719.552V105.977H698.367V98.4694Z" fill="white"/>
<path d="M735.976 84.3963C735.976 85.6839 736.057 86.8537 736.23 87.9146C736.42 88.9846 736.701 89.982 737.064 90.9251C738.125 93.854 739.839 96.0574 742.215 97.5264C744.609 99.0044 747.303 99.7389 750.305 99.7389C752.644 99.7389 754.93 99.4125 757.161 98.7596C759.41 98.0886 761.75 97.0549 764.198 95.6766L767.463 101.226C764.507 103.257 761.523 104.772 758.503 105.76C755.501 106.748 752.39 107.247 749.18 107.247C746.106 107.247 743.267 106.739 740.655 105.724C738.043 104.708 735.794 103.203 733.908 101.19C732.04 99.1586 730.58 96.6468 729.519 93.6454C728.448 90.653 727.922 87.1529 727.922 83.1631C727.922 79.9259 728.367 76.8791 729.265 74.0228C730.181 71.1483 731.532 68.6456 733.327 66.5147C735.114 64.3656 737.327 62.6609 739.966 61.4005C742.623 60.1491 745.716 59.5144 749.253 59.5144C752.663 59.5144 755.501 60.0403 757.777 61.0741C760.072 62.1168 761.931 63.4951 763.364 65.2089C764.815 66.9046 765.912 68.836 766.665 71.0123C767.409 73.1886 767.935 75.4192 768.225 77.6862C768.37 78.8015 768.461 79.9259 768.515 81.0594C768.56 82.2019 768.588 83.3082 768.588 84.3963H735.976ZM748.672 66.3333C746.786 66.3333 745.126 66.6144 743.702 67.1676C742.297 67.7026 741.1 68.4733 740.111 69.4889C739.113 70.4864 738.315 71.7015 737.717 73.1523C737.136 74.6031 736.701 76.2353 736.411 78.0489H759.881C759.755 76.3623 759.482 74.8026 759.047 73.3699C758.63 71.9463 757.995 70.7131 757.124 69.6703C756.254 68.6094 755.129 67.7842 753.751 67.2039C752.372 66.6235 750.676 66.3333 748.672 66.3333Z" fill="white"/>
<path d="M805.757 72.8621C805.757 71.6289 805.467 70.5951 804.886 69.7428C804.324 68.8723 803.59 68.1741 802.674 67.6391C801.776 67.0859 800.769 66.687 799.663 66.4421C798.574 66.2064 797.495 66.0794 796.434 66.0794C795.273 66.0794 794.203 66.2154 793.242 66.4784C792.271 66.7232 791.437 67.095 790.739 67.6028C790.031 68.0925 789.478 68.6909 789.07 69.4163C788.68 70.1236 788.49 70.9216 788.49 71.8102C788.49 73.3155 788.943 74.5124 789.868 75.4011C790.784 76.2988 792.317 77.1239 794.475 77.8675L803.181 80.9142C806.9 82.1747 809.62 83.8885 811.344 86.0647C813.058 88.2228 813.919 90.7981 813.919 93.7904C813.919 95.8035 813.52 97.6533 812.722 99.3399C811.924 101.008 810.781 102.441 809.312 103.62C807.861 104.781 806.093 105.687 804.016 106.34C801.93 106.993 799.636 107.32 797.123 107.32C793.587 107.32 790.712 106.748 788.49 105.615C786.286 104.481 784.581 102.985 783.375 101.117H778.84V93.6091H787.873C787.873 94.8695 788.136 95.9486 788.671 96.8372C789.224 97.7077 789.941 98.4241 790.811 98.9772C791.7 99.5394 792.707 99.9474 793.822 100.21C794.956 100.482 796.108 100.609 797.269 100.609C798.402 100.609 799.49 100.482 800.533 100.21C801.594 99.9202 802.529 99.5122 803.327 98.9772C804.125 98.4241 804.75 97.7712 805.213 97.0186C805.694 96.275 805.938 95.4136 805.938 94.4433C805.938 92.9925 805.467 91.7593 804.524 90.7437C803.581 89.71 801.966 88.785 799.699 87.9871L791.029 84.7227C787.492 83.4895 784.871 81.9117 783.157 79.9712C781.461 78.0126 780.618 75.5824 780.618 72.6807C780.618 70.7493 780.962 68.972 781.67 67.3489C782.395 65.7076 783.429 64.3021 784.79 63.1415C786.141 61.9627 787.8 61.0287 789.759 60.3486C791.718 59.6776 793.94 59.333 796.434 59.333C799.672 59.333 802.383 59.7955 804.56 60.7113C806.755 61.609 808.732 63.1415 810.473 65.3177H814.717V72.8621H805.757Z" fill="white"/>
<path d="M849.156 72.8621C849.156 71.6289 848.866 70.5951 848.285 69.7428C847.723 68.8723 846.989 68.1741 846.073 67.6391C845.175 67.0859 844.168 66.687 843.062 66.4421C841.973 66.2064 840.894 66.0794 839.833 66.0794C838.672 66.0794 837.602 66.2154 836.641 66.4784C835.67 66.7232 834.836 67.095 834.138 67.6028C833.43 68.0925 832.877 68.6909 832.469 69.4163C832.079 70.1236 831.889 70.9216 831.889 71.8102C831.889 73.3155 832.342 74.5124 833.267 75.4011C834.183 76.2988 835.716 77.1239 837.874 77.8675L846.58 80.9142C850.299 82.1747 853.019 83.8885 854.743 86.0647C856.457 88.2228 857.318 90.7981 857.318 93.7904C857.318 95.8035 856.919 97.6533 856.121 99.3399C855.323 101.008 854.18 102.441 852.711 103.62C851.26 104.781 849.492 105.687 847.415 106.34C845.329 106.993 843.034 107.32 840.522 107.32C836.985 107.32 834.111 106.748 831.889 105.615C829.685 104.481 827.98 102.985 826.774 101.117H822.239V93.6091H831.272C831.272 94.8695 831.535 95.9486 832.07 96.8372C832.623 97.7077 833.34 98.4241 834.21 98.9772C835.099 99.5394 836.106 99.9474 837.221 100.21C838.355 100.482 839.507 100.609 840.667 100.609C841.801 100.609 842.889 100.482 843.932 100.21C844.993 99.9202 845.927 99.5122 846.726 98.9772C847.524 98.4241 848.149 97.7712 848.612 97.0186C849.093 96.275 849.337 95.4136 849.337 94.4433C849.337 92.9925 848.866 91.7593 847.923 90.7437C846.979 89.71 845.365 88.785 843.098 87.9871L834.428 84.7227C830.891 83.4895 828.27 81.9117 826.556 79.9712C824.86 78.0126 824.017 75.5824 824.017 72.6807C824.017 70.7493 824.361 68.972 825.069 67.3489C825.794 65.7076 826.828 64.3021 828.189 63.1415C829.54 61.9627 831.199 61.0287 833.158 60.3486C835.117 59.6776 837.339 59.333 839.833 59.333C843.071 59.333 845.782 59.7955 847.959 60.7113C850.154 61.609 852.131 63.1415 853.872 65.3177H858.116V72.8621H849.156Z" fill="white"/>
<path d="M385.991 144.61C385.991 142.053 385.519 140.131 384.576 138.843C383.651 137.537 382.626 136.549 381.493 135.869C380.377 135.198 379.144 134.672 377.792 134.309C376.459 133.947 375.117 133.765 373.766 133.765C371.562 133.765 369.63 134.019 367.962 134.527C366.293 135.035 364.914 135.724 363.826 136.594C362.738 137.465 361.913 138.499 361.359 139.677C360.797 140.838 360.525 142.062 360.525 143.341C360.525 145.254 360.861 146.805 361.541 147.983C362.239 149.171 363.11 150.123 364.153 150.849C365.214 151.556 366.375 152.109 367.635 152.517C368.914 152.934 370.138 153.333 371.299 153.714L380.114 156.616C382.771 157.468 385.102 158.43 387.115 159.518C389.147 160.588 390.852 161.857 392.23 163.326C393.609 164.804 394.643 166.509 395.35 168.44C396.076 170.354 396.438 172.575 396.438 175.114C396.438 177.853 395.867 180.392 394.733 182.731C393.618 185.052 392.058 187.075 390.054 188.788C388.04 190.511 385.637 191.862 382.835 192.851C380.051 193.812 377.003 194.302 373.693 194.302C370.283 194.302 367.363 193.912 364.951 193.141C362.529 192.37 360.498 191.345 358.856 190.058C357.206 188.752 355.891 187.265 354.902 185.596C353.905 183.928 353.134 182.223 352.581 180.482H349.243V172.974H360.271C360.271 176.193 360.607 178.478 361.287 179.829C361.985 181.162 362.937 182.278 364.153 183.166C365.386 184.064 366.846 184.744 368.542 185.198C370.229 185.633 372.097 185.85 374.129 185.85C376.106 185.85 377.883 185.624 379.461 185.161C381.057 184.708 382.409 184.028 383.524 183.13C384.658 182.241 385.528 181.162 386.136 179.902C386.734 178.623 387.043 177.182 387.043 175.586C387.043 173.799 386.662 172.285 385.918 171.052C385.166 169.819 384.213 168.767 383.052 167.896C381.892 167.026 380.604 166.318 379.207 165.756C377.829 165.203 376.496 164.723 375.217 164.305L365.64 161.585C363.554 160.959 361.65 160.152 359.908 159.155C358.167 158.167 356.68 156.961 355.446 155.528C354.213 154.104 353.252 152.436 352.581 150.522C351.9 148.618 351.565 146.406 351.565 143.885C351.565 141.346 352.055 138.979 353.052 136.776C354.041 134.554 355.492 132.623 357.405 130.972C359.337 129.304 361.695 127.998 364.479 127.055C367.254 126.112 370.447 125.641 374.056 125.641C376.396 125.641 378.563 125.922 380.549 126.475C382.554 127.01 384.367 127.781 385.991 128.796C387.605 129.812 389.038 131.027 390.271 132.423C391.523 133.829 392.575 135.379 393.427 137.066H396.692V144.61H385.991Z" fill="white"/>
<path d="M416.129 147.584H426.757V154.186H416.056L415.911 180.301C415.911 182.096 416.11 183.547 416.528 184.653C416.936 185.742 417.589 186.503 418.487 186.939C419.375 187.356 420.391 187.555 421.534 187.555C422.767 187.555 423.837 187.446 424.762 187.229C425.705 187.011 426.73 186.639 427.846 186.104L429.732 191.581C428.326 192.307 426.848 192.869 425.306 193.286C423.756 193.721 421.933 193.939 419.829 193.939C417.87 193.939 416.147 193.694 414.678 193.213C413.199 192.733 411.957 191.926 410.941 190.783C409.944 189.65 409.2 188.126 408.692 186.213C408.202 184.309 407.967 181.924 407.967 179.068L408.075 154.186H400.856V147.584H408.184V136.739L416.129 132.967V147.584Z" fill="white"/>
<path d="M435.72 170.218C435.738 166.645 436.309 163.381 437.425 160.424C438.558 157.477 440.127 154.948 442.14 152.844C444.145 150.722 446.53 149.09 449.287 147.947C452.062 146.814 455.109 146.242 458.428 146.242C461.784 146.242 464.858 146.814 467.642 147.947C470.418 149.09 472.803 150.704 474.789 152.808C476.766 154.893 478.317 157.405 479.432 160.352C480.539 163.281 481.101 166.536 481.101 170.109C481.101 173.645 480.539 176.891 479.432 179.866C478.317 182.822 476.766 185.361 474.789 187.483C472.803 189.614 470.418 191.273 467.642 192.452C464.858 193.612 461.784 194.193 458.428 194.193C455.018 194.193 451.917 193.612 449.142 192.452C446.385 191.291 444.009 189.659 442.032 187.555C440.046 185.433 438.495 182.903 437.388 179.975C436.3 177.027 435.738 173.772 435.72 170.218ZM444.317 170.218C444.317 172.811 444.68 175.15 445.405 177.254C446.149 179.358 447.183 181.153 448.489 182.622C449.795 184.073 451.291 185.216 452.987 186.032C454.701 186.83 456.515 187.229 458.428 187.229C460.433 187.229 462.31 186.83 464.051 186.032C465.792 185.234 467.298 184.109 468.586 182.659C469.864 181.19 470.871 179.394 471.597 177.29C472.322 175.187 472.685 172.829 472.685 170.218C472.685 167.461 472.322 165.031 471.597 162.927C470.871 160.805 469.864 159.028 468.586 157.595C467.325 156.144 465.81 155.056 464.051 154.331C462.31 153.606 460.433 153.243 458.428 153.243C456.515 153.243 454.701 153.606 452.987 154.331C451.291 155.056 449.795 156.144 448.489 157.595C447.183 159.028 446.149 160.805 445.405 162.927C444.68 165.031 444.317 167.461 444.317 170.218Z" fill="white"/>
<path d="M522.414 157.124H514.107V154.331C513.164 154.331 512.184 154.512 511.169 154.875C510.153 155.238 509.21 155.8 508.339 156.543C507.469 157.296 506.707 158.248 506.054 159.409C505.401 160.551 504.929 161.902 504.639 163.471V185.343H512.33V192.851H489.875V185.343H496.114L496.15 155.093H489.875V147.585H504.313V153.823C504.839 152.88 505.437 152.01 506.09 151.212C506.743 150.414 507.469 149.724 508.267 149.144C509.083 148.546 509.981 148.074 510.951 147.73C511.912 147.394 512.964 147.222 514.107 147.222C515.631 147.222 517.055 147.222 518.388 147.222C519.739 147.222 521.081 147.249 522.414 147.294V157.124Z" fill="white"/>
<path d="M539.522 171.269C539.522 172.557 539.604 173.727 539.776 174.788C539.966 175.858 540.248 176.855 540.61 177.798C541.671 180.727 543.385 182.931 545.761 184.4C548.156 185.878 550.849 186.612 553.851 186.612C556.191 186.612 558.476 186.286 560.707 185.633C562.956 184.962 565.296 183.928 567.745 182.55L571.01 188.099C568.053 190.13 565.069 191.645 562.049 192.633C559.048 193.621 555.937 194.12 552.726 194.12C549.652 194.12 546.813 193.612 544.202 192.597C541.59 191.581 539.341 190.076 537.454 188.063C535.586 186.032 534.126 183.52 533.065 180.519C531.995 177.526 531.469 174.026 531.469 170.036C531.469 166.799 531.913 163.752 532.811 160.896C533.727 158.021 535.078 155.519 536.874 153.388C538.66 151.239 540.873 149.534 543.512 148.274C546.17 147.022 549.262 146.388 552.799 146.388C556.209 146.388 559.048 146.914 561.324 147.947C563.618 148.99 565.477 150.368 566.91 152.082C568.361 153.778 569.459 155.709 570.211 157.885C570.955 160.062 571.481 162.292 571.771 164.559C571.916 165.675 572.007 166.799 572.062 167.933C572.107 169.075 572.134 170.181 572.134 171.269H539.522ZM552.219 153.207C550.332 153.207 548.673 153.488 547.249 154.041C545.843 154.576 544.646 155.347 543.657 156.362C542.66 157.36 541.862 158.575 541.263 160.025C540.683 161.476 540.248 163.108 539.957 164.922H563.428C563.301 163.235 563.029 161.676 562.594 160.243C562.176 158.819 561.542 157.586 560.671 156.543C559.8 155.483 558.676 154.657 557.297 154.077C555.919 153.497 554.223 153.207 552.219 153.207Z" fill="white"/>
</svg>
